<svg xmlns="http://www.w3.org/2000/svg" fill="none" viewBox="0 0 24 24" id="Paralympics-Football">
    <path stroke="#000000" stroke-linecap="round" stroke-linejoin="round"
        d="M9.8203 3.5475C9.8203 4.2297 10.0913 4.8841 10.5737 5.3665C11.0562 5.8489 11.7105 6.12 12.3928 6.12C13.075 6.12 13.7294 5.8489 14.2117 5.3665C14.6942 4.8841 14.9653 4.2297 14.9653 3.5475C14.9653 2.8652 14.6942 2.2109 14.2117 1.7285C13.7294 1.246 13.075 0.975 12.3928 0.975C11.7105 0.975 11.0562 1.246 10.5737 1.7285C10.0913 2.2109 9.8203 2.8652 9.8203 3.5475Z"
        stroke-width="1.5"></path>
    <path stroke="#000000" stroke-linecap="round" stroke-linejoin="round"
        d="M10.1878 20.8198C10.1878 21.4046 10.4201 21.9654 10.8336 22.379C11.2472 22.7925 11.8079 23.0248 12.3928 23.0248C12.9775 23.0248 13.5384 22.7925 13.9519 22.379C14.3654 21.9654 14.5978 21.4046 14.5978 20.8198S14.3654 19.6742 13.9519 19.2607C13.5384 18.8472 12.9775 18.6148 12.3928 18.6148C11.8079 18.6148 11.2472 18.8472 10.8336 19.2607C10.42 19.6742 10.1878 20.2351 10.1878 20.8198Z"
        stroke-width="1.5"></path>
    <path stroke="#000000" stroke-linecap="round" stroke-linejoin="round"
        d="M15.9188 17.5053C16.0581 17.867 16.3346 18.1591 16.6882 18.318C17.0417 18.4769 17.4437 18.4897 17.8066 18.3536C18.1695 18.2176 18.4641 17.9436 18.6261 17.5915C18.7881 17.2394 18.8045 16.8375 18.6716 16.4734C18.4421 15.8575 18.0771 15.3008 17.6038 14.8447C17.1303 14.3886 16.5606 14.0447 15.9364 13.8382L13.7363 13.1042L13.3238 9.7948H15.3327C15.9945 9.7963 16.6481 9.6482 17.2446 9.3616C17.8411 9.0749 18.3651 8.6572 18.7774 8.1396L20.8354 5.5691C21.0791 5.2644 21.1918 4.8755 21.1487 4.4878C21.1056 4.1001 20.9103 3.7454 20.6056 3.5018C20.301 3.2581 19.912 3.1454 19.5244 3.1885C19.1367 3.2316 18.782 3.427 18.5383 3.7316L16.4803 6.3021C16.343 6.4749 16.1684 6.6144 15.9694 6.7101C15.7705 6.8058 15.5526 6.8553 15.3318 6.8548H8.7179C7.9921 6.8538 7.2773 7.0321 6.6372 7.3741C5.9971 7.7161 5.4514 8.211 5.0488 8.8148L4.4519 9.7105C4.3449 9.8714 4.2705 10.0518 4.2332 10.2413C4.1958 10.431 4.1962 10.6261 4.2342 10.8155C4.2722 11.0049 4.3472 11.1851 4.4549 11.3456C4.5625 11.5061 4.7007 11.6438 4.8616 11.7508C5.0225 11.8579 5.2028 11.9323 5.3924 11.9697C5.582 12.007 5.7771 12.0067 5.9666 11.9686C6.1561 11.9306 6.3362 11.8556 6.4967 11.748C6.6571 11.6403 6.7949 11.5021 6.9019 11.3412L7.4988 10.4455C7.6331 10.2455 7.8145 10.0814 8.0271 9.968C8.2397 9.8545 8.4769 9.795 8.7179 9.7948H10.3603L10.8052 13.3551L8.514 14.5036C8.328 14.5969 8.1242 14.6496 7.9162 14.6583C7.7083 14.6669 7.5008 14.6312 7.3077 14.5536L4.8577 13.5736C4.6784 13.5021 4.4868 13.4664 4.2938 13.4689C4.1007 13.4713 3.9101 13.5118 3.7327 13.5878C3.5552 13.664 3.3946 13.7743 3.2598 13.9125C3.125 14.0508 3.0188 14.2141 2.9472 14.3934C2.8756 14.5727 2.84 14.7643 2.8424 14.9574C2.8448 15.1504 2.8853 15.341 2.9614 15.5184C3.0375 15.6959 3.1478 15.8565 3.286 15.9913C3.4243 16.1261 3.5877 16.2323 3.7669 16.3039L6.2169 17.2839C6.7955 17.5156 7.4166 17.6223 8.0394 17.5968C8.6621 17.5712 9.2724 17.4142 9.8302 17.1359L12.5143 15.7923L15.0162 16.6273C15.2246 16.6965 15.4146 16.8117 15.5722 16.9644C15.7298 17.1171 15.851 17.3034 15.9266 17.5093L15.9188 17.5054Z"
        stroke-width="1.5"></path>
    <path stroke="#000000" stroke-linecap="round" stroke-linejoin="round"
        d="M15.9188 17.5057L17.6279 22.0715C17.7328 22.3509 17.9202 22.5917 18.1652 22.7621C18.4103 22.9324 18.7015 23.0241 18.9999 23.025C19.1765 23.0246 19.3517 22.9932 19.5173 22.9319C19.6981 22.864 19.8638 22.7612 20.0048 22.6293C20.1458 22.4975 20.2595 22.3391 20.3392 22.1632C20.4191 21.9874 20.4635 21.7976 20.4699 21.6046C20.4763 21.4116 20.4447 21.2193 20.3768 21.0386"
        stroke-width="1.5"></path>
</svg>